<svg width="29" height="29" viewBox="0 0 29 29" fill="none" xmlns="http://www.w3.org/2000/svg">
<path d="M25.5 11.75V7.625C25.5 6.10622 24.2688 4.875 22.75 4.875H6.25C4.73122 4.875 3.5 6.10622 3.5 7.625V11.75M25.5 11.75V24.125C25.5 25.6438 24.2688 26.875 22.75 26.875H6.25C4.73122 26.875 3.5 25.6438 3.5 24.125V11.75M25.5 11.75H3.5M9 2.125V7.625M20 2.125V7.625" stroke="black" stroke-linecap="round"/>
<path d="M8.9396 14.5547H7.2473C7.01364 14.5547 6.82422 14.7441 6.82422 14.9778V16.6701C6.82422 16.9037 7.01364 17.0931 7.2473 17.0931H8.9396C9.17326 17.0931 9.36268 16.9037 9.36268 16.6701V14.9778C9.36268 14.7441 9.17326 14.5547 8.9396 14.5547Z" fill="black"/>
<path d="M15.1193 14.5547H13.427C13.1933 14.5547 13.0039 14.7441 13.0039 14.9778V16.6701C13.0039 16.9037 13.1933 17.0931 13.427 17.0931H15.1193C15.353 17.0931 15.5424 16.9037 15.5424 16.6701V14.9778C15.5424 14.7441 15.353 14.5547 15.1193 14.5547Z" fill="black"/>
<path d="M21.299 14.5547H19.6067C19.373 14.5547 19.1836 14.7441 19.1836 14.9778V16.6701C19.1836 16.9037 19.373 17.0931 19.6067 17.0931H21.299C21.5326 17.0931 21.7221 16.9037 21.7221 16.6701V14.9778C21.7221 14.7441 21.5326 14.5547 21.299 14.5547Z" fill="black"/>
</svg>
