<svg width="42" height="42" viewBox="0 0 42 42" fill="none" xmlns="http://www.w3.org/2000/svg">
<g clip-path="url(#clip0_358_8)">
<path d="M10.3333 4C5.73096 4 2 7.73069 2 12.3327V23.3004C2 27.9025 5.73096 31.6331 10.3333 31.6331V37.1246C10.3333 37.2987 10.5341 37.396 10.6708 37.2881L17.8333 31.6331H31.1667C35.769 31.6331 39.5 27.9025 39.5 23.3004V12.3327C39.5 7.73069 35.769 4 31.1667 4H10.3333Z" stroke="black" stroke-width="2" stroke-linecap="round"/>
<path d="M14.7526 16.9153C14.7526 18.066 13.8198 18.9987 12.6692 18.9987C11.5186 18.9987 10.5859 18.066 10.5859 16.9153C10.5859 15.7647 11.5186 14.832 12.6692 14.832C13.8198 14.832 14.7526 15.7647 14.7526 16.9153Z" fill="black"/>
<path d="M23.0808 16.9153C23.0808 18.066 22.1481 18.9987 20.9974 18.9987C19.8468 18.9987 18.9141 18.066 18.9141 16.9153C18.9141 15.7647 19.8468 14.832 20.9974 14.832C22.1481 14.832 23.0808 15.7647 23.0808 16.9153Z" fill="black"/>
<path d="M31.4167 16.9153C31.4167 18.066 30.484 18.9987 29.3333 18.9987C28.1827 18.9987 27.25 18.066 27.25 16.9153C27.25 15.7647 28.1827 14.832 29.3333 14.832C30.484 14.832 31.4167 15.7647 31.4167 16.9153Z" fill="black"/>
</g>
<defs>
<clipPath id="clip0_358_8">
<rect width="42" height="42" fill="white"/>
</clipPath>
</defs>
</svg>
