<svg width="42" height="42" viewBox="0 0 42 42" fill="none" xmlns="http://www.w3.org/2000/svg">
<path d="M10.3333 4C5.73096 4 2 7.73069 2 12.3327V23.3004C2 27.9025 5.73096 31.6331 10.3333 31.6331V37.1246C10.3333 37.2987 10.5341 37.396 10.6708 37.2881L17.8333 31.6331H31.1667C35.769 31.6331 39.5 27.9025 39.5 23.3004V12.3327C39.5 7.73069 35.769 4 31.1667 4H10.3333Z" stroke="white" stroke-width="2" stroke-linecap="round"/>
<path d="M14.7507 16.9163C14.7507 18.067 13.8179 18.9997 12.6673 18.9997C11.5167 18.9997 10.584 18.067 10.584 16.9163C10.584 15.7657 11.5167 14.833 12.6673 14.833C13.8179 14.833 14.7507 15.7657 14.7507 16.9163Z" fill="white"/>
<path d="M23.0827 16.9163C23.0827 18.067 22.15 18.9997 20.9993 18.9997C19.8487 18.9997 18.916 18.067 18.916 16.9163C18.916 15.7657 19.8487 14.833 20.9993 14.833C22.15 14.833 23.0827 15.7657 23.0827 16.9163Z" fill="white"/>
<path d="M31.4167 16.9163C31.4167 18.067 30.484 18.9997 29.3333 18.9997C28.1827 18.9997 27.25 18.067 27.25 16.9163C27.25 15.7657 28.1827 14.833 29.3333 14.833C30.484 14.833 31.4167 15.7657 31.4167 16.9163Z" fill="white"/>
<rect width="42" height="42" stroke="black"/>
</svg>
