<svg width="32" height="31" viewBox="0 0 32 31" fill="none" xmlns="http://www.w3.org/2000/svg">
<path d="M21.9757 30.0622H10.1758C7.6572 30.0598 5.24247 29.0575 3.46157 27.2766C1.68067 25.4957 0.679128 23.0814 0.676758 20.5628V10.1595C0.679128 7.64092 1.68067 5.22659 3.46157 3.44569C5.24247 1.6648 7.6572 0.662527 10.1758 0.660156H21.9757C24.4942 0.662527 26.909 1.6648 28.6899 3.44569C30.4708 5.22659 31.4723 7.64092 31.4747 10.1595V20.5628C31.4723 23.0814 30.4708 25.4957 28.6899 27.2766C26.909 29.0575 24.4942 30.0598 21.9757 30.0622ZM10.1758 2.77335C8.21758 2.77572 6.34026 3.55435 4.95561 4.93901C3.57095 6.32366 2.79201 8.20129 2.78964 10.1595V20.5628C2.79201 22.521 3.57095 24.3987 4.95561 25.7833C6.34026 27.168 8.21758 27.9466 10.1758 27.949H21.9757C23.9347 27.9466 25.8129 27.1677 27.199 25.7833C28.5851 24.3989 29.366 22.5219 29.3708 20.5628V10.1595C29.366 8.20047 28.5851 6.32341 27.199 4.93901C25.8129 3.55461 23.9347 2.77572 21.9757 2.77335H10.1758Z" fill="white"/>
<path d="M16.0757 23.8219C14.4024 23.8219 12.7666 23.3256 11.3753 22.3959C9.98401 21.4663 8.89961 20.1456 8.25925 18.5997C7.6189 17.0537 7.45135 15.3526 7.7778 13.7114C8.10425 12.0703 8.91004 10.5625 10.0933 9.37925C11.2765 8.19603 12.784 7.39054 14.4252 7.06409C16.0663 6.73764 17.7675 6.9046 19.3134 7.54496C20.8594 8.18531 22.1807 9.26966 23.1104 10.661C24.04 12.0523 24.5362 13.6888 24.5362 15.3621C24.5362 17.606 23.6448 19.7575 22.0582 21.3441C20.4715 22.9308 18.3196 23.8219 16.0757 23.8219ZM16.0757 9.01379C14.8203 9.01379 13.593 9.38646 12.5492 10.0839C11.5053 10.7814 10.6917 11.7726 10.2113 12.9324C9.73087 14.0923 9.60516 15.3688 9.85009 16.6001C10.095 17.8315 10.6996 18.9622 11.5873 19.8499C12.475 20.7377 13.6061 21.3423 14.8374 21.5872C16.0687 21.8321 17.345 21.7065 18.5048 21.2261C19.6647 20.7457 20.6561 19.9321 21.3536 18.8882C22.051 17.8443 22.4233 16.6176 22.4233 15.3621C22.4209 13.6794 21.7514 12.066 20.5615 10.8761C19.3716 9.68617 17.7585 9.01616 16.0757 9.01379Z" fill="white"/>
<path d="M26.1568 7.16948C26.1568 7.52363 26.0518 7.86998 25.8551 8.16444C25.6583 8.4589 25.3787 8.68815 25.0515 8.82367C24.7243 8.95919 24.3643 8.99505 24.0169 8.92596C23.6696 8.85687 23.3506 8.6859 23.1001 8.43548C22.8497 8.18506 22.6792 7.86567 22.6101 7.51833C22.541 7.17099 22.5765 6.81121 22.712 6.48403C22.8475 6.15684 23.077 5.87729 23.3715 5.68054C23.6659 5.48379 24.0121 5.37891 24.3663 5.37891C24.8412 5.37891 25.2966 5.56769 25.6324 5.90349C25.9682 6.23929 26.1568 6.69459 26.1568 7.16948Z" fill="white"/>
</svg>
