<svg width="44" height="44" viewBox="0 0 44 44" fill="none" xmlns="http://www.w3.org/2000/svg">
<path d="M12.5859 35.2282L19.0443 40.2282C19.8776 41.0615 21.7526 41.4782 23.0026 41.4782H30.9193C33.4193 41.4782 36.1276 39.6032 36.7526 37.1032L41.7526 21.8949C42.7943 18.9782 40.9193 16.4781 37.7943 16.4781H29.4609C28.2109 16.4781 27.1693 15.4365 27.3776 13.9781L28.4193 7.31149C28.8359 5.43649 27.5859 3.35316 25.7109 2.72816C24.0443 2.10316 21.9609 2.93649 21.1276 4.18649L12.5859 16.8948" stroke="black" stroke-width="2" stroke-miterlimit="10"/>
<path d="M1.96094 35.2285V14.8118C1.96094 11.8952 3.21094 10.8535 6.1276 10.8535H8.21094C11.1276 10.8535 12.3776 11.8952 12.3776 14.8118V35.2285C12.3776 38.1452 11.1276 39.1868 8.21094 39.1868H6.1276C3.21094 39.1868 1.96094 38.1452 1.96094 35.2285Z" stroke="black" stroke-width="2" stroke-linecap="round" stroke-linejoin="round"/>
</svg>
