<svg width="44" height="44" viewBox="0 0 44 44" fill="none" xmlns="http://www.w3.org/2000/svg">
<path d="M12.584 35.2292L19.0424 40.2292C19.8757 41.0625 21.7507 41.4792 23.0007 41.4792H30.9174C33.4174 41.4792 36.1257 39.6042 36.7507 37.1042L41.7507 21.8959C42.7924 18.9792 40.9174 16.4791 37.7924 16.4791H29.459C28.209 16.4791 27.1674 15.4375 27.3757 13.9791L28.4174 7.31247C28.834 5.43747 27.584 3.35414 25.709 2.72914C24.0424 2.10414 21.959 2.93747 21.1257 4.18747L12.584 16.8958" stroke="white" stroke-width="2" stroke-miterlimit="10"/>
<path d="M1.96094 35.2285V14.8118C1.96094 11.8952 3.21094 10.8535 6.1276 10.8535H8.21094C11.1276 10.8535 12.3776 11.8952 12.3776 14.8118V35.2285C12.3776 38.1452 11.1276 39.1868 8.21094 39.1868H6.1276C3.21094 39.1868 1.96094 38.1452 1.96094 35.2285Z" stroke="white" stroke-width="2" stroke-linecap="round" stroke-linejoin="round"/>
</svg>
