<svg width="104" height="104" viewBox="0 0 104 104" fill="none" xmlns="http://www.w3.org/2000/svg">
<mask id="mask0_358_2" style="mask-type:luminance" maskUnits="userSpaceOnUse" x="2" y="2" width="100" height="100">
<path d="M102 2H2V102H102V2Z" fill="white"/>
</mask>
<g mask="url(#mask0_358_2)">
<path d="M86.3767 8.25001C83.8903 8.25001 81.5057 9.23773 79.7476 10.9959C77.9894 12.754 77.0017 15.1386 77.0017 17.625C77.0017 20.1114 77.9894 22.496 79.7476 24.2541C81.5057 26.0123 83.8903 27 86.3767 27C88.8631 27 91.2477 26.0123 93.0058 24.2541C94.764 22.496 95.7517 20.1114 95.7517 17.625C95.7517 15.1386 94.764 12.754 93.0058 10.9959C91.2477 9.23773 88.8631 8.25001 86.3767 8.25001ZM70.7517 17.625C70.7512 13.959 72.0399 10.4095 74.3921 7.59758C76.7444 4.78567 80.0105 2.89041 83.619 2.24337C87.2275 1.59633 90.9486 2.23872 94.1313 4.05815C97.314 5.87758 99.7556 8.75819 101.029 12.196C102.303 15.6338 102.327 19.4099 101.097 22.8636C99.8671 26.3173 97.4623 29.2287 94.303 31.0884C91.1436 32.9481 87.431 33.6377 83.8146 33.0366C80.1981 32.4354 76.9082 30.5818 74.5204 27.8L32.533 47.3C33.4982 50.359 33.4982 53.641 32.533 56.7L74.5204 76.2C77.0445 73.2646 80.5683 71.3707 84.4092 70.8853C88.25 70.4 92.1342 71.3578 95.3091 73.5731C98.484 75.7884 100.723 79.1034 101.593 82.8758C102.464 86.6481 101.902 90.6091 100.018 93.9911C98.1339 97.3731 95.0614 99.9352 91.3959 101.181C87.7305 102.427 83.7331 102.267 80.1784 100.734C76.6238 99.2003 73.765 96.4017 72.1562 92.8805C70.5473 89.3592 70.303 85.3661 71.4704 81.675L29.483 62.175C27.4044 64.5973 24.6339 66.325 21.5441 67.1255C18.4542 67.9261 15.1934 67.7612 12.2001 66.653C9.20673 65.5448 6.62463 63.5464 4.80108 60.9268C2.97753 58.3071 2 55.1918 2 52C2 48.8081 2.97753 45.6929 4.80108 43.0732C6.62463 40.4536 9.20673 38.4552 12.2001 37.347C15.1934 36.2388 18.4542 36.0739 21.5441 36.8745C24.6339 37.675 27.4044 39.4027 29.483 41.825L71.4704 22.325C70.9925 20.8042 70.7501 19.2192 70.7517 17.625ZM17.6267 42.625C15.1403 42.625 12.7557 43.6127 10.9975 45.3709C9.23938 47.129 8.25166 49.5136 8.25166 52C8.25166 54.4864 9.23938 56.871 10.9975 58.6291C12.7557 60.3873 15.1403 61.375 17.6267 61.375C20.1131 61.375 22.4977 60.3873 24.2558 58.6291C26.014 56.871 27.0017 54.4864 27.0017 52C27.0017 49.5136 26.014 47.129 24.2558 45.3709C22.4977 43.6127 20.1131 42.625 17.6267 42.625ZM86.3767 77C83.8903 77 81.5057 77.9877 79.7476 79.7459C77.9894 81.504 77.0017 83.8886 77.0017 86.375C77.0017 88.8614 77.9894 91.246 79.7476 93.0041C81.5057 94.7623 83.8903 95.75 86.3767 95.75C88.8631 95.75 91.2477 94.7623 93.0058 93.0041C94.764 91.246 95.7517 88.8614 95.7517 86.375C95.7517 83.8886 94.764 81.504 93.0058 79.7459C91.2477 77.9877 88.8631 77 86.3767 77Z" fill="black"/>
</g>
</svg>
