<svg width="100" height="100" viewBox="0 0 100 100" fill="none" xmlns="http://www.w3.org/2000/svg">
<g clip-path="url(#clip0_5_2)">
<path d="M84.375 6.25C81.8886 6.25 79.504 7.23772 77.7459 8.99587C75.9877 10.754 75 13.1386 75 15.625C75 18.1114 75.9877 20.496 77.7459 22.2541C79.504 24.0123 81.8886 25 84.375 25C86.8614 25 89.246 24.0123 91.0041 22.2541C92.7623 20.496 93.75 18.1114 93.75 15.625C93.75 13.1386 92.7623 10.754 91.0041 8.99587C89.246 7.23772 86.8614 6.25 84.375 6.25ZM68.75 15.625C68.7495 11.959 70.0382 8.40947 72.3904 5.59757C74.7427 2.78566 78.0088 0.890396 81.6173 0.243356C85.2258 -0.403684 88.9469 0.238708 92.1296 2.05814C95.3123 3.87757 97.7539 6.75818 99.0272 10.196C100.301 13.6338 100.325 17.4099 99.095 20.8636C97.8654 24.3173 95.4606 27.2287 92.3013 29.0884C89.1419 30.9481 85.4293 31.6377 81.8129 31.0366C78.1964 30.4354 74.9065 28.5818 72.5187 25.8L30.5313 45.3C31.4965 48.359 31.4965 51.641 30.5313 54.7L72.5187 74.2C75.0428 71.2646 78.5666 69.3707 82.4075 68.8853C86.2483 68.4 90.1325 69.3578 93.3074 71.5731C96.4823 73.7884 98.7217 77.1034 99.5917 80.8758C100.462 84.6481 99.9002 88.6091 98.0162 91.9911C96.1322 95.3731 93.0597 97.9352 89.3942 99.181C85.7288 100.427 81.7314 100.267 78.1767 98.7338C74.6221 97.2003 71.7633 94.4017 70.1545 90.8805C68.5456 87.3592 68.3013 83.3661 69.4687 79.675L27.4813 60.175C25.4027 62.5973 22.6322 64.325 19.5424 65.1255C16.4525 65.9261 13.1917 65.7612 10.1984 64.653C7.20507 63.5448 4.62297 61.5464 2.79942 58.9268C0.975867 56.3071 -0.00165875 53.1918 -0.00165875 50C-0.00165875 46.8081 0.975867 43.6929 2.79942 41.0732C4.62297 38.4536 7.20507 36.4552 10.1984 35.347C13.1917 34.2388 16.4525 34.0739 19.5424 34.8745C22.6322 35.675 25.4027 37.4027 27.4813 39.825L69.4687 20.325C68.9908 18.8042 68.7484 17.2192 68.75 15.625ZM15.625 40.625C13.1386 40.625 10.754 41.6127 8.99587 43.3709C7.23772 45.129 6.25 47.5136 6.25 50C6.25 52.4864 7.23772 54.871 8.99587 56.6291C10.754 58.3873 13.1386 59.375 15.625 59.375C18.1114 59.375 20.496 58.3873 22.2541 56.6291C24.0123 54.871 25 52.4864 25 50C25 47.5136 24.0123 45.129 22.2541 43.3709C20.496 41.6127 18.1114 40.625 15.625 40.625ZM84.375 75C81.8886 75 79.504 75.9877 77.7459 77.7459C75.9877 79.504 75 81.8886 75 84.375C75 86.8614 75.9877 89.246 77.7459 91.0041C79.504 92.7623 81.8886 93.75 84.375 93.75C86.8614 93.75 89.246 92.7623 91.0041 91.0041C92.7623 89.246 93.75 86.8614 93.75 84.375C93.75 81.8886 92.7623 79.504 91.0041 77.7459C89.246 75.9877 86.8614 75 84.375 75Z" fill="white"/>
</g>
<defs>
<clipPath id="clip0_5_2">
<rect width="100" height="100" fill="white"/>
</clipPath>
</defs>
</svg>
