<svg width="27" height="22" viewBox="0 0 27 22" fill="none" xmlns="http://www.w3.org/2000/svg">
<path d="M24.1324 3.34148C23.8062 3.43268 23.4683 3.47548 23.1297 3.46738V3.35984C23.9412 2.72525 24.6274 1.94468 25.153 1.05867C25.2247 0.790079 25.153 0.710028 25.153 0.701075L23.4699 1.41713L22.0553 2.05275C21.5227 1.50695 20.8844 1.07506 20.1794 0.784134C19.4744 0.49321 18.7175 0.349676 17.9549 0.36097C15.0184 0.36097 12.6459 2.43755 12.6459 5.00703C12.6401 5.61065 12.7123 6.21249 12.8607 6.79761C12.8607 6.66331 12.8607 6.9319 12.8607 6.79761C10.594 6.61239 8.39015 5.96038 6.38779 4.882C2.13517 2.72436 1.86658 1.2379 1.86658 1.2379C1.20407 1.94518 0.854906 4.29059 1.53533 6.13488C1.98237 7.0284 2.64366 7.79735 3.4602 8.37311C2.99504 8.3667 2.53341 8.29127 2.0904 8.14928C1.74367 8.05385 1.41847 7.8934 1.13245 7.67541C0.720612 8.69604 1.55323 10.5042 2.99465 11.7934C3.70239 12.3431 4.50289 12.7614 5.35821 13.0288L2.96779 13.0917C2.83349 15.4195 7.84711 16.8067 7.84711 16.8067C6.42361 17.942 4.66307 18.5719 2.84245 18.5972C1.91748 18.5966 0.997557 18.4616 0.111816 18.1951C2.58725 20.3347 5.77639 21.466 9.0468 21.3644C17.9997 20.8989 23.0491 13.1991 23.2908 5.63391C23.7779 5.32525 24.2206 4.95157 24.6069 4.52354C25.1739 3.94274 25.6616 3.28955 26.0573 2.58083C26.0573 2.58083 24.6964 3.18033 24.1324 3.34148Z" fill="white"/>
</svg>
