<svg width="32" height="24" viewBox="0 0 32 24" fill="none" xmlns="http://www.w3.org/2000/svg">
<path d="M25.3867 0.895508H6.76473C5.96449 0.895507 5.17211 1.05326 4.4329 1.35976C3.69369 1.66627 3.02216 2.11545 2.45672 2.68171C1.89128 3.24798 1.44303 3.91973 1.13761 4.65939C0.832189 5.39905 0.675588 6.1918 0.676764 6.99204V17.8518C0.676764 19.4664 1.31817 21.0152 2.45989 22.1569C3.6016 23.2986 5.1501 23.9396 6.76473 23.9396H25.3867C27.0014 23.9396 28.5499 23.2986 29.6916 22.1569C30.8333 21.0152 31.4747 19.4664 31.4747 17.8518V6.99204C31.4759 6.1918 31.3193 5.39905 31.0139 4.65939C30.7084 3.91973 30.2602 3.24798 29.6947 2.68171C29.1293 2.11545 28.4578 1.66627 27.7186 1.35976C26.9794 1.05326 26.187 0.895507 25.3867 0.895508ZM13.363 16.9032V7.95028L21.1252 12.4267L13.363 16.9032Z" fill="white"/>
</svg>
