<?xml version="1.0" standalone="no"?>
<!DOCTYPE svg PUBLIC "-//W3C//DTD SVG 20010904//EN"
 "http://www.w3.org/TR/2001/REC-SVG-20010904/DTD/svg10.dtd">
<svg version="1.0" xmlns="http://www.w3.org/2000/svg"
 width="312.000000pt" height="312.000000pt" viewBox="0 0 312.000000 312.000000"
 preserveAspectRatio="xMidYMid meet">
<metadata>
Created by potrace 1.14, written by Peter Selinger 2001-2017
</metadata>
<g transform="translate(0.000000,312.000000) scale(0.100000,-0.100000)"
fill="#000000" stroke="none">
<path d="M1310 3099 c-446 -77 -828 -330 -1066 -704 -102 -159 -166 -316 -211
-510 -28 -125 -39 -439 -18 -540 3 -16 10 -56 16 -89 61 -348 280 -700 579
-932 180 -140 431 -254 646 -293 33 -6 70 -14 84 -17 14 -3 102 -7 195 -9 187
-3 305 12 470 60 414 120 787 443 970 839 97 211 138 400 139 641 1 195 -2
219 -49 425 -9 44 -58 175 -90 245 -121 266 -340 513 -596 672 -145 90 -362
176 -509 202 -36 6 -76 14 -90 17 -14 3 -101 7 -195 9 -130 2 -195 -2 -275
-16z m430 -275 c124 -37 213 -127 245 -249 76 -290 -202 -537 -480 -426 -81
33 -145 92 -187 173 -28 57 -32 72 -32 153 -1 81 2 97 30 156 78 164 252 244
424 193z m-990 -682 c191 -64 293 -265 230 -453 -53 -156 -182 -248 -346 -246
-245 3 -411 237 -333 470 63 187 265 290 449 229z m1880 -80 c107 -36 193
-119 229 -222 20 -56 24 -150 10 -200 -7 -25 -13 -47 -14 -50 -6 -27 -45 -86
-82 -123 -144 -144 -377 -139 -519 11 -86 90 -115 230 -74 352 24 73 49 111
100 157 89 82 234 113 350 75z m-1013 -353 c101 -38 134 -172 62 -254 -107
-122 -305 -21 -275 140 17 89 125 148 213 114z m-487 -603 c71 -19 102 -35
151 -80 74 -69 119 -171 119 -271 0 -155 -114 -300 -268 -340 -277 -74 -522
186 -431 458 40 118 124 200 240 231 70 19 122 19 189 2z m1042 -1 c166 -43
271 -187 264 -358 -15 -353 -473 -476 -661 -177 -172 273 84 618 397 535z"/>
</g>
</svg>
