<?xml version="1.0" standalone="no"?>
<!DOCTYPE svg PUBLIC "-//W3C//DTD SVG 20010904//EN"
 "http://www.w3.org/TR/2001/REC-SVG-20010904/DTD/svg10.dtd">
<svg version="1.0" xmlns="http://www.w3.org/2000/svg"
 width="478.000000pt" height="478.000000pt" viewBox="0 0 478.000000 478.000000"
 preserveAspectRatio="xMidYMid meet">
<metadata>
Created by potrace 1.14, written by Peter Selinger 2001-2017
</metadata>
<g transform="translate(0.000000,478.000000) scale(0.100000,-0.100000)"
fill="#000000" stroke="none">
<path d="M2234 4769 c-579 -37 -1124 -286 -1540 -705 -559 -562 -800 -1369
-643 -2149 170 -843 783 -1528 1612 -1799 229 -76 459 -110 727 -110 326 0
577 47 870 161 559 219 1010 636 1276 1178 114 234 188 480 225 755 19 138 17
468 -5 610 -80 535 -308 994 -680 1366 -488 488 -1151 738 -1842 693z m1176
-1292 c29 -114 51 -209 49 -211 -2 -1 -391 -100 -864 -219 l-860 -215 893 -1
893 -1 -3 -638 -3 -637 -33 -68 c-43 -87 -117 -161 -201 -201 -61 -28 -77 -31
-206 -36 -264 -11 -1387 -11 -1465 0 -97 14 -167 47 -235 111 -69 65 -113 152
-126 245 -4 38 -8 319 -9 624 l0 555 -46 183 c-26 100 -45 184 -43 187 3 2
497 127 1099 278 726 181 1097 270 1101 263 3 -6 30 -104 59 -219z"/>
<path d="M3153 3557 c-46 -11 -83 -23 -82 -26 0 -3 52 -50 115 -103 151 -128
168 -129 135 -6 -11 40 -25 92 -31 116 -13 50 -15 50 -137 19z"/>
<path d="M2673 3437 c-45 -12 -84 -25 -88 -28 -8 -9 216 -199 235 -199 18 0
200 47 206 53 2 2 -46 46 -107 98 -73 62 -120 95 -137 96 -15 1 -64 -8 -109
-20z"/>
<path d="M2220 3324 c-30 -9 -72 -20 -93 -25 -21 -6 -37 -14 -35 -18 7 -20
218 -191 235 -191 29 0 203 43 203 51 0 13 -225 199 -240 198 -8 0 -40 -7 -70
-15z"/>
<path d="M1693 3192 c-57 -14 -103 -29 -102 -32 0 -5 185 -164 218 -188 16
-11 36 -8 125 14 58 14 104 30 101 34 -6 10 -232 200 -236 199 -2 -1 -50 -13
-106 -27z"/>
<path d="M1276 3082 c-5 -9 48 -230 58 -239 5 -5 61 7 179 38 l38 10 -117 100
c-108 91 -145 112 -158 91z"/>
<path d="M1350 2600 l0 -130 106 0 c90 0 105 2 100 15 -3 8 -42 67 -86 130
-56 79 -88 115 -101 115 -18 0 -19 -8 -19 -130z"/>
<path d="M1683 2715 c4 -8 43 -66 88 -130 l81 -115 110 0 c95 0 109 2 104 15
-9 24 -147 218 -164 233 -10 8 -52 12 -120 12 -87 0 -103 -2 -99 -15z"/>
<path d="M2190 2722 c0 -13 160 -236 175 -245 8 -4 62 -6 119 -5 l105 3 -91
128 -91 127 -108 0 c-60 0 -109 -4 -109 -8z"/>
<path d="M2700 2720 c0 -5 38 -63 86 -130 l85 -120 115 0 115 0 -22 33 c-13
17 -54 76 -92 130 l-69 97 -109 0 c-63 0 -109 -4 -109 -10z"/>
<path d="M3210 2721 c0 -5 37 -63 83 -128 57 -81 90 -119 105 -121 22 -3 22
-2 22 127 l0 131 -105 0 c-58 0 -105 -4 -105 -9z"/>
<path d="M1352 1968 l3 -403 29 -53 c36 -65 82 -107 156 -141 l55 -26 785 0
785 0 57 23 c70 28 141 95 171 160 21 45 22 60 25 445 l3 397 -1036 0 -1036 0
3 -402z m1094 51 c137 -77 256 -147 264 -155 13 -13 13 -16 0 -24 -58 -38
-510 -290 -519 -290 -8 0 -11 88 -11 305 0 169 4 305 9 305 5 0 121 -63 257
-141z"/>
</g>
</svg>
